# Blender v2.75 (sub 0) OBJ File: ''
# www.blender.org
o Cube
v 0.382765 0.000000 -0.382765
v 0.382765 0.000000 0.382765
v -0.382765 0.000000 0.382765
v -0.382765 0.000000 -0.382765
v 0.500000 0.635756 -0.500000
v 0.500000 0.635756 0.500000
v -0.500000 0.635756 0.500000
v -0.500000 0.635756 -0.500000
v 0.181025 0.126978 -0.181025
v 0.181025 0.217491 -0.181025
v 0.500000 0.529857 -0.500000
v 0.181025 0.126978 0.181025
v 0.181025 0.217491 0.181025
v 0.500000 0.529857 0.500000
v -0.181025 0.126978 0.181025
v -0.181025 0.217491 0.181025
v -0.500000 0.529857 0.500000
v -0.181025 0.126978 -0.181025
v -0.181025 0.217491 -0.181025
v -0.500000 0.529857 -0.500000
v 0.028599 0.354081 -0.458104
v 0.028599 0.311504 -0.458104
v -0.028599 0.311504 -0.458104
v -0.028599 0.354081 -0.458104
v -0.458104 0.311504 0.024059
v -0.458104 0.354081 0.024059
v -0.458104 0.354081 -0.024060
v -0.458104 0.311504 -0.024060
v 0.028599 0.311504 0.458104
v 0.028599 0.354081 0.458104
v -0.028599 0.354081 0.458104
v -0.028599 0.311504 0.458104
v 0.458104 0.311504 -0.024059
v 0.458104 0.354081 -0.024059
v 0.458104 0.354081 0.024060
v 0.458104 0.311504 0.024060
vt 0.000391 0.999609
vt 0.505755 0.612060
vn 0.000000 1.000000 -0.000000
vn 1.000000 -0.000000 0.000000
vn -0.000000 -0.000000 1.000000
vn -1.000000 -0.000000 -0.000000
vn 0.000000 0.846300 -0.532700
vn 0.000000 0.000000 -1.000000
vn 0.000000 -0.714500 -0.699700
vn -0.532700 0.846300 -0.000000
vn -0.699700 -0.714500 -0.000000
vn -0.000000 0.846300 0.532700
vn -0.000000 -0.714500 0.699700
vn 0.532700 0.846300 0.000000
vn 0.699700 -0.714500 0.000000
vn 0.876200 0.000000 -0.482000
vn -0.876200 -0.000000 -0.482000
vn -0.000000 0.896900 0.442200
vn -0.492900 0.000000 0.870100
vn 0.442200 0.896900 0.000000
vn -0.492900 0.000000 -0.870100
vn 0.876200 -0.000000 0.482000
vn 0.000000 0.896900 -0.442200
vn -0.876200 0.000000 0.482000
vn 0.492900 0.000000 -0.870100
vn -0.442200 0.896900 -0.000000
vn 0.492900 -0.000000 0.870100
vn -0.000000 -0.832300 0.554300
vn -0.554300 -0.832300 -0.000000
vn 0.000000 -0.832300 -0.554300
vn 0.554300 -0.832300 0.000000
s off
f 5/1/1 8/1/1 7/1/1 6/1/1
f 11/1/2 5/1/2 6/1/2 14/1/2
f 14/1/3 6/1/3 7/1/3 17/1/3
f 17/1/4 7/1/4 8/1/4 20/1/4
f 9/1/5 1/1/5 4/1/5 18/1/5
f 5/1/6 11/1/6 20/1/6 8/1/6
f 11/1/7 10/1/7 19/1/7 20/1/7
f 3/1/8 15/1/8 18/1/8 4/1/8
f 16/1/9 17/1/9 20/1/9 19/1/9
f 2/1/10 12/1/10 15/1/10 3/1/10
f 13/1/11 14/1/11 17/1/11 16/1/11
f 1/1/12 9/1/12 12/1/12 2/1/12
f 10/1/13 11/1/13 14/1/13 13/1/13
f 21/2/6 22/2/6 23/2/6 24/2/6
f 9/2/14 22/2/14 21/2/14 10/2/14
f 19/2/15 24/2/15 23/2/15 18/2/15
f 10/2/16 21/2/16 24/2/16 19/2/16
f 25/2/4 26/2/4 27/2/4 28/2/4
f 16/2/17 26/2/17 25/2/17 15/2/17
f 19/2/18 27/2/18 26/2/18 16/2/18
f 18/2/19 28/2/19 27/2/19 19/2/19
f 29/2/3 30/2/3 31/2/3 32/2/3
f 13/2/20 30/2/20 29/2/20 12/2/20
f 16/2/21 31/2/21 30/2/21 13/2/21
f 15/2/22 32/2/22 31/2/22 16/2/22
f 33/2/2 34/2/2 35/2/2 36/2/2
f 10/2/23 34/2/23 33/2/23 9/2/23
f 13/2/24 35/2/24 34/2/24 10/2/24
f 12/2/25 36/2/25 35/2/25 13/2/25
f 15/2/26 12/2/26 29/2/26 32/2/26
f 18/2/27 15/2/27 25/2/27 28/2/27
f 9/1/28 18/1/28 23/1/28 22/1/28
f 12/2/29 9/2/29 33/2/29 36/2/29
